<?xml version="1.0" encoding="iso-8859-1"?>
<!-- Uploaded to: SVG Repo, www.svgrepo.com, Generator: SVG Repo Mixer Tools -->
<!DOCTYPE svg PUBLIC "-//W3C//DTD SVG 1.1//EN" "http://www.w3.org/Graphics/SVG/1.1/DTD/svg11.dtd">
<svg fill="#9497A9" version="1.1" id="Capa_1" xmlns="http://www.w3.org/2000/svg" xmlns:xlink="http://www.w3.org/1999/xlink" 
	 width="800px" height="800px" viewBox="0 0 31.711 31.711"
	 xml:space="preserve">
<g>
	<g>
		<polygon points="25.801,23.261 20.131,27.742 23.273,31.711 24.767,27.777 28.941,27.232 		"/>
		<polygon points="10.161,25.05 14.095,26.545 14.64,30.718 18.611,27.578 14.131,21.909 		"/>
		<path d="M20.131,18.741c-1.758,0-3.19,1.431-3.19,3.188c0,1.76,1.433,3.19,3.19,3.19c1.759,0,3.19-1.431,3.19-3.19
			C23.323,20.172,21.891,18.741,20.131,18.741z M21.651,23.973l-1.52-0.801l-1.52,0.801l0.29-1.69l-1.229-1.199l1.699-0.246
			l0.76-1.539l0.76,1.539l1.699,0.246l-1.229,1.199L21.651,23.973z"/>
		<path d="M24.006,21.911c0-2.144-1.735-3.877-3.877-3.877c-2.139,0-3.875,1.733-3.875,3.877c0,2.14,1.737,3.873,3.875,3.873
			C22.27,25.784,24.006,24.051,24.006,21.911z M20.131,25.336c-1.877,0-3.405-1.527-3.405-3.404c0-1.879,1.528-3.406,3.405-3.406
			c1.879,0,3.404,1.527,3.404,3.406C23.536,23.809,22.01,25.336,20.131,25.336z"/>
	</g>
	<polygon points="21.228,0 21.022,0.02 21.004,0 2.77,0 2.77,28.131 13.412,28.131 13.121,26.868 4.033,26.868 4.033,1.263 
		20.155,1.263 20.155,6.288 25.097,6.288 25.097,21.52 26.36,22.535 26.36,7.569 26.36,5.355 26.36,5.133 	"/>
	<g>
		<path d="M9.583,10.691c-0.012-0.058-0.032-0.138-0.061-0.239c-0.029-0.102-0.082-0.201-0.157-0.3
			c-0.075-0.099-0.175-0.186-0.3-0.261C8.94,9.816,8.781,9.779,8.584,9.779c-0.226,0-0.415,0.049-0.565,0.147
			c-0.151,0.099-0.271,0.229-0.36,0.391c-0.09,0.162-0.155,0.345-0.196,0.548c-0.041,0.203-0.061,0.408-0.061,0.617
			c0,0.208,0.02,0.414,0.061,0.616c0.041,0.203,0.105,0.386,0.196,0.548c0.089,0.162,0.209,0.292,0.36,0.391
			c0.15,0.099,0.339,0.147,0.565,0.147c0.162,0,0.3-0.025,0.413-0.078c0.113-0.052,0.208-0.124,0.287-0.217
			c0.079-0.093,0.142-0.203,0.191-0.33c0.049-0.128,0.088-0.264,0.117-0.408h1.877c0,0.313-0.063,0.622-0.187,0.93
			c-0.125,0.307-0.307,0.583-0.547,0.829c-0.24,0.247-0.537,0.445-0.891,0.596c-0.354,0.151-0.756,0.226-1.208,0.226
			c-0.504,0-0.95-0.084-1.338-0.252c-0.388-0.168-0.717-0.396-0.986-0.687C6.043,13.504,5.838,13.16,5.7,12.764
			c-0.139-0.396-0.208-0.824-0.208-1.281c0-0.487,0.074-0.931,0.221-1.33c0.147-0.4,0.358-0.742,0.633-1.026
			c0.275-0.283,0.605-0.504,0.991-0.66c0.386-0.156,0.818-0.234,1.299-0.234c0.857,0.005,1.519,0.221,1.986,0.647
			c0.467,0.426,0.74,1.029,0.821,1.812L9.583,10.691L9.583,10.691z"/>
		<path d="M12.268,8.38h3.198c0.423,0,0.779,0.069,1.069,0.209c0.29,0.139,0.524,0.313,0.704,0.521
			c0.18,0.209,0.309,0.438,0.387,0.687s0.117,0.484,0.117,0.704c0,0.377-0.059,0.702-0.178,0.978
			c-0.119,0.275-0.287,0.504-0.504,0.687s-0.475,0.318-0.773,0.408c-0.298,0.09-0.625,0.135-0.978,0.135h-1.13v1.877h-1.912V8.38z
			 M14.179,11.229h0.739c0.122,0,0.243-0.004,0.365-0.013c0.122-0.009,0.23-0.034,0.326-0.078c0.095-0.043,0.174-0.11,0.234-0.2
			c0.061-0.089,0.091-0.213,0.091-0.369c0-0.139-0.025-0.249-0.074-0.33c-0.049-0.081-0.116-0.142-0.2-0.183
			c-0.084-0.04-0.181-0.064-0.291-0.073c-0.11-0.009-0.223-0.013-0.338-0.013h-0.852V11.229z"/>
		<path d="M18.385,8.38h5.135v1.59h-3.225v0.773h2.929v1.478h-2.929v0.773h3.32v1.59h-5.232V8.38H18.385z"/>
	</g>
	<rect x="5.776" y="17.102" width="8.769" height="1.191"/>
	<rect x="5.776" y="19.416" width="8.769" height="1.191"/>
</g>
</svg>